<svg width="65" height="62" viewBox="0 0 65 62" fill="none" xmlns="http://www.w3.org/2000/svg">
<circle cx="40.1561" cy="24.9774" r="16.6776" fill="url(#paint0_linear_700_2027)" stroke="url(#paint1_linear_700_2027)" stroke-width="0.438884"/>
<foreignObject x="-1.86241" y="7.1664" width="65.9804" height="50.3567"><div xmlns="http://www.w3.org/1999/xhtml" style="backdrop-filter:blur(2.02px);clip-path:url(#bgblur_0_700_2027_clip_path);height:100%;width:100%"></div></foreignObject><g filter="url(#filter0_d_700_2027)" data-figma-bg-blur-radius="4.04796">
<mask id="path-2-inside-1_700_2027" fill="white">
<path fill-rule="evenodd" clip-rule="evenodd" d="M45.9007 53.4748V53.475H15.2981V53.4748C8.05599 53.4732 2.18555 47.6019 2.18555 40.3594C2.18555 33.8442 6.93609 28.4386 13.1623 27.4175C13.8197 18.3591 21.377 11.2144 30.603 11.2144C39.8292 11.2144 47.3866 18.3593 48.0438 27.4178C54.269 28.4398 59.0185 33.845 59.0185 40.3594C59.0185 47.6028 53.1465 53.4748 45.9031 53.4748C45.9023 53.4748 45.9015 53.4748 45.9007 53.4748Z"/>
</mask>
<path fill-rule="evenodd" clip-rule="evenodd" d="M45.9007 53.4748V53.475H15.2981V53.4748C8.05599 53.4732 2.18555 47.6019 2.18555 40.3594C2.18555 33.8442 6.93609 28.4386 13.1623 27.4175C13.8197 18.3591 21.377 11.2144 30.603 11.2144C39.8292 11.2144 47.3866 18.3593 48.0438 27.4178C54.269 28.4398 59.0185 33.845 59.0185 40.3594C59.0185 47.6028 53.1465 53.4748 45.9031 53.4748C45.9023 53.4748 45.9015 53.4748 45.9007 53.4748Z" fill="url(#paint2_linear_700_2027)" style="mix-blend-mode:soft-light"/>
<path fill-rule="evenodd" clip-rule="evenodd" d="M45.9007 53.4748V53.475H15.2981V53.4748C8.05599 53.4732 2.18555 47.6019 2.18555 40.3594C2.18555 33.8442 6.93609 28.4386 13.1623 27.4175C13.8197 18.3591 21.377 11.2144 30.603 11.2144C39.8292 11.2144 47.3866 18.3593 48.0438 27.4178C54.269 28.4398 59.0185 33.845 59.0185 40.3594C59.0185 47.6028 53.1465 53.4748 45.9031 53.4748C45.9023 53.4748 45.9015 53.4748 45.9007 53.4748Z" fill="url(#paint3_linear_700_2027)" fill-opacity="0.3"/>
<path d="M45.9007 53.4748V52.8919H45.3178V53.4748H45.9007ZM45.9007 53.475V54.0579H46.4836V53.475H45.9007ZM15.2981 53.475H14.7152V54.0579H15.2981V53.475ZM15.2981 53.4748H15.881V52.892L15.2982 52.8919L15.2981 53.4748ZM13.1623 27.4175L13.2566 27.9927L13.7104 27.9183L13.7436 27.4597L13.1623 27.4175ZM48.0438 27.4178L47.4624 27.46L47.4957 27.9186L47.9494 27.9931L48.0438 27.4178ZM45.9007 53.4748H45.3178V53.475H45.9007H46.4836V53.4748H45.9007ZM45.9007 53.475V52.8921H15.2981V53.475V54.0579H45.9007V53.475ZM15.2981 53.475H15.881V53.4748H15.2981H14.7152V53.475H15.2981ZM15.2981 53.4748L15.2982 52.8919C8.37798 52.8904 2.76845 47.28 2.76845 40.3594H2.18555H1.60264C1.60264 47.9237 7.73399 54.0561 15.298 54.0577L15.2981 53.4748ZM2.18555 40.3594H2.76845C2.76845 34.1344 7.30761 28.9684 13.2566 27.9927L13.1623 27.4175L13.0679 26.8423C6.56457 27.9089 1.60264 33.5541 1.60264 40.3594H2.18555ZM13.1623 27.4175L13.7436 27.4597C14.3791 18.7038 21.6848 11.7973 30.603 11.7973V11.2144V10.6314C21.0692 10.6314 13.2602 18.0144 12.5809 27.3753L13.1623 27.4175ZM30.603 11.2144V11.7973C39.5214 11.7973 46.8271 18.704 47.4624 27.46L48.0438 27.4178L48.6252 27.3757C47.946 18.0146 40.137 10.6314 30.603 10.6314V11.2144ZM48.0438 27.4178L47.9494 27.9931C53.8974 28.9695 58.4356 34.1351 58.4356 40.3594H59.0185H59.6014C59.6014 33.5549 54.6405 27.9101 48.1382 26.8426L48.0438 27.4178ZM59.0185 40.3594H58.4356C58.4356 47.2809 52.8246 52.8919 45.9031 52.8919V53.4748V54.0577C53.4684 54.0577 59.6014 47.9248 59.6014 40.3594H59.0185ZM45.9031 53.4748V52.8919C45.9031 52.8919 45.9031 52.8919 45.9031 52.8919C45.9031 52.8919 45.9031 52.8919 45.9031 52.8919C45.9031 52.8919 45.9031 52.8919 45.9031 52.8919C45.9031 52.8919 45.9031 52.8919 45.9031 52.8919C45.9031 52.8919 45.9031 52.8919 45.9031 52.8919C45.9031 52.8919 45.9031 52.8919 45.9031 52.8919C45.9031 52.8919 45.9031 52.8919 45.903 52.8919C45.903 52.8919 45.903 52.8919 45.903 52.8919C45.903 52.8919 45.903 52.8919 45.903 52.8919C45.903 52.8919 45.903 52.8919 45.903 52.8919C45.903 52.8919 45.903 52.8919 45.903 52.8919C45.903 52.8919 45.903 52.8919 45.903 52.8919C45.903 52.8919 45.903 52.8919 45.903 52.8919C45.903 52.8919 45.903 52.8919 45.903 52.8919C45.903 52.8919 45.903 52.8919 45.903 52.8919C45.903 52.8919 45.903 52.8919 45.903 52.8919C45.903 52.8919 45.903 52.8919 45.903 52.8919C45.903 52.8919 45.903 52.8919 45.903 52.8919C45.903 52.8919 45.903 52.8919 45.903 52.8919C45.903 52.8919 45.903 52.8919 45.903 52.8919C45.903 52.8919 45.903 52.8919 45.903 52.8919C45.903 52.8919 45.903 52.8919 45.903 52.8919C45.903 52.8919 45.903 52.8919 45.903 52.8919C45.903 52.8919 45.903 52.8919 45.903 52.8919C45.903 52.8919 45.903 52.8919 45.903 52.8919C45.903 52.8919 45.903 52.8919 45.903 52.8919C45.903 52.8919 45.903 52.8919 45.903 52.8919C45.903 52.8919 45.903 52.8919 45.903 52.8919C45.903 52.8919 45.903 52.8919 45.903 52.8919C45.9029 52.8919 45.9029 52.8919 45.9029 52.8919C45.9029 52.8919 45.9029 52.8919 45.9029 52.8919C45.9029 52.8919 45.9029 52.8919 45.9029 52.8919C45.9029 52.8919 45.9029 52.8919 45.9029 52.8919C45.9029 52.8919 45.9029 52.8919 45.9029 52.8919C45.9029 52.8919 45.9029 52.8919 45.9029 52.8919C45.9029 52.8919 45.9029 52.8919 45.9029 52.8919C45.9029 52.8919 45.9029 52.8919 45.9029 52.8919C45.9029 52.8919 45.9029 52.8919 45.9029 52.8919C45.9029 52.8919 45.9029 52.8919 45.9029 52.8919C45.9029 52.8919 45.9029 52.8919 45.9029 52.8919C45.9029 52.8919 45.9029 52.8919 45.9029 52.8919C45.9029 52.8919 45.9029 52.8919 45.9029 52.8919C45.9029 52.8919 45.9029 52.8919 45.9029 52.8919C45.9029 52.8919 45.9029 52.8919 45.9029 52.8919C45.9029 52.8919 45.9029 52.8919 45.9029 52.8919C45.9029 52.8919 45.9029 52.8919 45.9029 52.8919C45.9029 52.8919 45.9029 52.8919 45.9029 52.8919C45.9029 52.8919 45.9029 52.8919 45.9029 52.8919C45.9029 52.8919 45.9029 52.8919 45.9029 52.8919C45.9029 52.8919 45.9029 52.8919 45.9029 52.8919C45.9029 52.8919 45.9028 52.8919 45.9028 52.8919C45.9028 52.8919 45.9028 52.8919 45.9028 52.8919C45.9028 52.8919 45.9028 52.8919 45.9028 52.8919C45.9028 52.8919 45.9028 52.8919 45.9028 52.8919C45.9028 52.8919 45.9028 52.8919 45.9028 52.8919C45.9028 52.8919 45.9028 52.8919 45.9028 52.8919C45.9028 52.8919 45.9028 52.8919 45.9028 52.8919C45.9028 52.8919 45.9028 52.8919 45.9028 52.8919C45.9028 52.8919 45.9028 52.8919 45.9028 52.8919C45.9028 52.8919 45.9028 52.8919 45.9028 52.8919C45.9028 52.8919 45.9028 52.8919 45.9028 52.8919C45.9028 52.8919 45.9028 52.8919 45.9028 52.8919C45.9028 52.8919 45.9028 52.8919 45.9028 52.8919C45.9028 52.8919 45.9028 52.8919 45.9028 52.8919C45.9028 52.8919 45.9028 52.8919 45.9028 52.8919C45.9028 52.8919 45.9028 52.8919 45.9028 52.8919C45.9028 52.8919 45.9028 52.8919 45.9028 52.8919C45.9028 52.8919 45.9028 52.8919 45.9028 52.8919C45.9028 52.8919 45.9028 52.8919 45.9028 52.8919C45.9028 52.8919 45.9028 52.8919 45.9028 52.8919C45.9028 52.8919 45.9028 52.8919 45.9028 52.8919C45.9028 52.8919 45.9028 52.8919 45.9027 52.8919C45.9027 52.8919 45.9027 52.8919 45.9027 52.8919C45.9027 52.8919 45.9027 52.8919 45.9027 52.8919C45.9027 52.8919 45.9027 52.8919 45.9027 52.8919C45.9027 52.8919 45.9027 52.8919 45.9027 52.8919C45.9027 52.8919 45.9027 52.8919 45.9027 52.8919C45.9027 52.8919 45.9027 52.8919 45.9027 52.8919C45.9027 52.8919 45.9027 52.8919 45.9027 52.8919C45.9027 52.8919 45.9027 52.8919 45.9027 52.8919C45.9027 52.8919 45.9027 52.8919 45.9027 52.8919C45.9027 52.8919 45.9027 52.8919 45.9027 52.8919C45.9027 52.8919 45.9027 52.8919 45.9027 52.8919C45.9027 52.8919 45.9027 52.8919 45.9027 52.8919C45.9027 52.8919 45.9027 52.8919 45.9027 52.8919C45.9027 52.8919 45.9027 52.8919 45.9027 52.8919C45.9027 52.8919 45.9027 52.8919 45.9027 52.8919C45.9027 52.8919 45.9027 52.8919 45.9027 52.8919C45.9027 52.8919 45.9027 52.8919 45.9027 52.8919C45.9027 52.8919 45.9027 52.8919 45.9027 52.8919C45.9027 52.8919 45.9027 52.8919 45.9027 52.8919C45.9027 52.8919 45.9027 52.8919 45.9027 52.8919C45.9027 52.8919 45.9027 52.8919 45.9027 52.8919C45.9026 52.8919 45.9026 52.8919 45.9026 52.8919C45.9026 52.8919 45.9026 52.8919 45.9026 52.8919C45.9026 52.8919 45.9026 52.8919 45.9026 52.8919C45.9026 52.8919 45.9026 52.8919 45.9026 52.8919C45.9026 52.8919 45.9026 52.8919 45.9026 52.8919C45.9026 52.8919 45.9026 52.8919 45.9026 52.8919C45.9026 52.8919 45.9026 52.8919 45.9026 52.8919C45.9026 52.8919 45.9026 52.8919 45.9026 52.8919C45.9026 52.8919 45.9026 52.8919 45.9026 52.8919C45.9026 52.8919 45.9026 52.8919 45.9026 52.8919C45.9026 52.8919 45.9026 52.8919 45.9026 52.8919C45.9026 52.8919 45.9026 52.8919 45.9026 52.8919C45.9026 52.8919 45.9026 52.8919 45.9026 52.8919C45.9026 52.8919 45.9026 52.8919 45.9026 52.8919C45.9026 52.8919 45.9026 52.8919 45.9026 52.8919C45.9026 52.8919 45.9026 52.8919 45.9026 52.8919C45.9026 52.8919 45.9026 52.8919 45.9026 52.8919C45.9026 52.8919 45.9026 52.8919 45.9026 52.8919C45.9026 52.8919 45.9026 52.8919 45.9026 52.8919C45.9026 52.8919 45.9026 52.8919 45.9026 52.8919C45.9026 52.8919 45.9026 52.8919 45.9026 52.8919C45.9026 52.8919 45.9025 52.8919 45.9025 52.8919C45.9025 52.8919 45.9025 52.8919 45.9025 52.8919C45.9025 52.8919 45.9025 52.8919 45.9025 52.8919C45.9025 52.8919 45.9025 52.8919 45.9025 52.8919C45.9025 52.8919 45.9025 52.8919 45.9025 52.8919C45.9025 52.8919 45.9025 52.8919 45.9025 52.8919C45.9025 52.8919 45.9025 52.8919 45.9025 52.8919C45.9025 52.8919 45.9025 52.8919 45.9025 52.8919C45.9025 52.8919 45.9025 52.8919 45.9025 52.8919C45.9025 52.8919 45.9025 52.8919 45.9025 52.8919C45.9025 52.8919 45.9025 52.8919 45.9025 52.8919C45.9025 52.8919 45.9025 52.8919 45.9025 52.8919C45.9025 52.8919 45.9025 52.8919 45.9025 52.8919C45.9025 52.8919 45.9025 52.8919 45.9025 52.8919C45.9025 52.8919 45.9025 52.8919 45.9025 52.8919C45.9025 52.8919 45.9025 52.8919 45.9025 52.8919C45.9025 52.8919 45.9025 52.8919 45.9025 52.8919C45.9025 52.8919 45.9025 52.8919 45.9025 52.8919C45.9025 52.8919 45.9025 52.8919 45.9025 52.8919C45.9025 52.8919 45.9025 52.8919 45.9025 52.8919C45.9025 52.8919 45.9025 52.8919 45.9025 52.8919C45.9025 52.8919 45.9025 52.8919 45.9025 52.8919C45.9025 52.8919 45.9024 52.8919 45.9024 52.8919C45.9024 52.8919 45.9024 52.8919 45.9024 52.8919C45.9024 52.8919 45.9024 52.8919 45.9024 52.8919C45.9024 52.8919 45.9024 52.8919 45.9024 52.8919C45.9024 52.8919 45.9024 52.8919 45.9024 52.8919C45.9024 52.8919 45.9024 52.8919 45.9024 52.8919C45.9024 52.8919 45.9024 52.8919 45.9024 52.8919C45.9024 52.8919 45.9024 52.8919 45.9024 52.8919C45.9024 52.8919 45.9024 52.8919 45.9024 52.8919C45.9024 52.8919 45.9024 52.8919 45.9024 52.8919C45.9024 52.8919 45.9024 52.8919 45.9024 52.8919C45.9024 52.8919 45.9024 52.8919 45.9024 52.8919C45.9024 52.8919 45.9024 52.8919 45.9024 52.8919C45.9024 52.8919 45.9024 52.8919 45.9024 52.8919C45.9024 52.8919 45.9024 52.8919 45.9024 52.8919C45.9024 52.8919 45.9024 52.8919 45.9024 52.8919C45.9024 52.8919 45.9024 52.8919 45.9024 52.8919C45.9024 52.8919 45.9024 52.8919 45.9024 52.8919C45.9024 52.8919 45.9024 52.8919 45.9024 52.8919C45.9024 52.8919 45.9024 52.8919 45.9024 52.8919C45.9024 52.8919 45.9024 52.8919 45.9024 52.8919C45.9024 52.8919 45.9024 52.8919 45.9023 52.8919C45.9023 52.8919 45.9023 52.8919 45.9023 52.8919C45.9023 52.8919 45.9023 52.8919 45.9023 52.8919C45.9023 52.8919 45.9023 52.8919 45.9023 52.8919C45.9023 52.8919 45.9023 52.8919 45.9023 52.8919C45.9023 52.8919 45.9023 52.8919 45.9023 52.8919C45.9023 52.8919 45.9023 52.8919 45.9023 52.8919C45.9023 52.8919 45.9023 52.8919 45.9023 52.8919C45.9023 52.8919 45.9023 52.8919 45.9023 52.8919C45.9023 52.8919 45.9023 52.8919 45.9023 52.8919C45.9023 52.8919 45.9023 52.8919 45.9023 52.8919C45.9023 52.8919 45.9023 52.8919 45.9023 52.8919C45.9023 52.8919 45.9023 52.8919 45.9023 52.8919C45.9023 52.8919 45.9023 52.8919 45.9023 52.8919C45.9023 52.8919 45.9023 52.8919 45.9023 52.8919C45.9023 52.8919 45.9023 52.8919 45.9023 52.8919C45.9023 52.8919 45.9023 52.8919 45.9023 52.8919C45.9023 52.8919 45.9023 52.8919 45.9023 52.8919C45.9023 52.8919 45.9023 52.8919 45.9023 52.8919C45.9023 52.8919 45.9023 52.8919 45.9023 52.8919C45.9023 52.8919 45.9023 52.8919 45.9023 52.8919C45.9023 52.8919 45.9023 52.8919 45.9023 52.8919C45.9022 52.8919 45.9022 52.8919 45.9022 52.8919C45.9022 52.8919 45.9022 52.8919 45.9022 52.8919C45.9022 52.8919 45.9022 52.8919 45.9022 52.8919C45.9022 52.8919 45.9022 52.8919 45.9022 52.8919C45.9022 52.8919 45.9022 52.8919 45.9022 52.8919C45.9022 52.8919 45.9022 52.8919 45.9022 52.8919C45.9022 52.8919 45.9022 52.8919 45.9022 52.8919C45.9022 52.8919 45.9022 52.8919 45.9022 52.8919C45.9022 52.8919 45.9022 52.8919 45.9022 52.8919C45.9022 52.8919 45.9022 52.8919 45.9022 52.8919C45.9022 52.8919 45.9022 52.8919 45.9022 52.8919C45.9022 52.8919 45.9022 52.8919 45.9022 52.8919C45.9022 52.8919 45.9022 52.8919 45.9022 52.8919C45.9022 52.8919 45.9022 52.8919 45.9022 52.8919C45.9022 52.8919 45.9022 52.8919 45.9022 52.8919C45.9022 52.8919 45.9022 52.8919 45.9022 52.8919C45.9022 52.8919 45.9022 52.8919 45.9022 52.8919C45.9022 52.8919 45.9022 52.8919 45.9022 52.8919C45.9022 52.8919 45.9022 52.8919 45.9022 52.8919C45.9022 52.8919 45.9022 52.8919 45.9022 52.8919C45.9022 52.8919 45.9022 52.8919 45.9022 52.8919C45.9022 52.8919 45.9021 52.8919 45.9021 52.8919C45.9021 52.8919 45.9021 52.8919 45.9021 52.8919C45.9021 52.8919 45.9021 52.8919 45.9021 52.8919C45.9021 52.8919 45.9021 52.8919 45.9021 52.8919C45.9021 52.8919 45.9021 52.8919 45.9021 52.8919C45.9021 52.8919 45.9021 52.8919 45.9021 52.8919C45.9021 52.8919 45.9021 52.8919 45.9021 52.8919C45.9021 52.8919 45.9021 52.8919 45.9021 52.8919C45.9021 52.8919 45.9021 52.8919 45.9021 52.8919C45.9021 52.8919 45.9021 52.8919 45.9021 52.8919C45.9021 52.8919 45.9021 52.8919 45.9021 52.8919C45.9021 52.8919 45.9021 52.8919 45.9021 52.8919C45.9021 52.8919 45.9021 52.8919 45.9021 52.8919C45.9021 52.8919 45.9021 52.8919 45.9021 52.8919C45.9021 52.8919 45.9021 52.8919 45.9021 52.8919C45.9021 52.8919 45.9021 52.8919 45.9021 52.8919C45.9021 52.8919 45.9021 52.8919 45.9021 52.8919C45.9021 52.8919 45.9021 52.8919 45.9021 52.8919C45.9021 52.8919 45.9021 52.8919 45.9021 52.8919C45.9021 52.8919 45.9021 52.8919 45.9021 52.8919C45.9021 52.8919 45.9021 52.8919 45.9021 52.8919C45.9021 52.8919 45.9021 52.8919 45.9021 52.8919C45.9021 52.8919 45.902 52.8919 45.902 52.8919C45.902 52.8919 45.902 52.8919 45.902 52.8919C45.902 52.8919 45.902 52.8919 45.902 52.8919C45.902 52.8919 45.902 52.8919 45.902 52.8919C45.902 52.8919 45.902 52.8919 45.902 52.8919C45.902 52.8919 45.902 52.8919 45.902 52.8919C45.902 52.8919 45.902 52.8919 45.902 52.8919C45.902 52.8919 45.902 52.8919 45.902 52.8919C45.902 52.8919 45.902 52.8919 45.902 52.8919C45.902 52.8919 45.902 52.8919 45.902 52.8919C45.902 52.8919 45.902 52.8919 45.902 52.8919C45.902 52.8919 45.902 52.8919 45.902 52.8919C45.902 52.8919 45.902 52.8919 45.902 52.8919C45.902 52.8919 45.902 52.8919 45.902 52.8919C45.902 52.8919 45.902 52.8919 45.902 52.8919C45.902 52.8919 45.902 52.8919 45.902 52.8919C45.902 52.8919 45.902 52.8919 45.902 52.8919C45.902 52.8919 45.902 52.8919 45.902 52.8919C45.902 52.8919 45.902 52.8919 45.902 52.8919C45.902 52.8919 45.902 52.8919 45.902 52.8919C45.902 52.8919 45.902 52.8919 45.902 52.8919C45.902 52.8919 45.902 52.8919 45.9019 52.8919C45.9019 52.8919 45.9019 52.8919 45.9019 52.8919C45.9019 52.8919 45.9019 52.8919 45.9019 52.8919C45.9019 52.8919 45.9019 52.8919 45.9019 52.8919C45.9019 52.8919 45.9019 52.8919 45.9019 52.8919C45.9019 52.8919 45.9019 52.8919 45.9019 52.8919C45.9019 52.8919 45.9019 52.8919 45.9019 52.8919C45.9019 52.8919 45.9019 52.8919 45.9019 52.8919C45.9019 52.8919 45.9019 52.8919 45.9019 52.8919C45.9019 52.8919 45.9019 52.8919 45.9019 52.8919C45.9019 52.8919 45.9019 52.8919 45.9019 52.8919C45.9019 52.8919 45.9019 52.8919 45.9019 52.8919C45.9019 52.8919 45.9019 52.8919 45.9019 52.8919C45.9019 52.8919 45.9019 52.8919 45.9019 52.8919C45.9019 52.8919 45.9019 52.8919 45.9019 52.8919C45.9019 52.8919 45.9019 52.8919 45.9019 52.8919C45.9019 52.8919 45.9019 52.8919 45.9019 52.8919C45.9019 52.8919 45.9019 52.8919 45.9019 52.8919C45.9019 52.8919 45.9019 52.8919 45.9019 52.8919C45.9019 52.8919 45.9019 52.8919 45.9019 52.8919C45.9019 52.8919 45.9019 52.8919 45.9019 52.8919C45.9019 52.8919 45.9019 52.8919 45.9019 52.8919C45.9018 52.8919 45.9018 52.8919 45.9018 52.8919C45.9018 52.8919 45.9018 52.8919 45.9018 52.8919C45.9018 52.8919 45.9018 52.8919 45.9018 52.8919C45.9018 52.8919 45.9018 52.8919 45.9018 52.8919C45.9018 52.8919 45.9018 52.8919 45.9018 52.8919C45.9018 52.8919 45.9018 52.8919 45.9018 52.8919C45.9018 52.8919 45.9018 52.8919 45.9018 52.8919C45.9018 52.8919 45.9018 52.8919 45.9018 52.8919C45.9018 52.8919 45.9018 52.8919 45.9018 52.8919C45.9018 52.8919 45.9018 52.8919 45.9018 52.8919C45.9018 52.8919 45.9018 52.8919 45.9018 52.8919C45.9018 52.8919 45.9018 52.8919 45.9018 52.8919C45.9018 52.8919 45.9018 52.8919 45.9018 52.8919C45.9018 52.8919 45.9018 52.8919 45.9018 52.8919C45.9018 52.8919 45.9018 52.8919 45.9018 52.8919C45.9018 52.8919 45.9018 52.8919 45.9018 52.8919C45.9018 52.8919 45.9018 52.8919 45.9018 52.8919C45.9018 52.8919 45.9018 52.8919 45.9018 52.8919C45.9018 52.8919 45.9018 52.8919 45.9018 52.8919C45.9018 52.8919 45.9018 52.8919 45.9018 52.8919C45.9018 52.8919 45.9018 52.8919 45.9018 52.8919C45.9017 52.8919 45.9017 52.8919 45.9017 52.8919C45.9017 52.8919 45.9017 52.8919 45.9017 52.8919C45.9017 52.8919 45.9017 52.8919 45.9017 52.8919C45.9017 52.8919 45.9017 52.8919 45.9017 52.8919C45.9017 52.8919 45.9017 52.8919 45.9017 52.8919C45.9017 52.8919 45.9017 52.8919 45.9017 52.8919C45.9017 52.8919 45.9017 52.8919 45.9017 52.8919C45.9017 52.8919 45.9017 52.8919 45.9017 52.8919C45.9017 52.8919 45.9017 52.8919 45.9017 52.8919C45.9017 52.8919 45.9017 52.8919 45.9017 52.8919C45.9017 52.8919 45.9017 52.8919 45.9017 52.8919C45.9017 52.8919 45.9017 52.8919 45.9017 52.8919C45.9017 52.8919 45.9017 52.8919 45.9017 52.8919C45.9017 52.8919 45.9017 52.8919 45.9017 52.8919C45.9017 52.8919 45.9017 52.8919 45.9017 52.8919C45.9017 52.8919 45.9017 52.8919 45.9017 52.8919C45.9017 52.8919 45.9017 52.8919 45.9017 52.8919C45.9017 52.8919 45.9017 52.8919 45.9017 52.8919C45.9017 52.8919 45.9017 52.8919 45.9017 52.8919C45.9017 52.8919 45.9017 52.8919 45.9017 52.8919C45.9017 52.8919 45.9017 52.8919 45.9017 52.8919C45.9017 52.8919 45.9016 52.8919 45.9016 52.8919C45.9016 52.8919 45.9016 52.8919 45.9016 52.8919C45.9016 52.8919 45.9016 52.8919 45.9016 52.8919C45.9016 52.8919 45.9016 52.8919 45.9016 52.8919C45.9016 52.8919 45.9016 52.8919 45.9016 52.8919C45.9016 52.8919 45.9016 52.8919 45.9016 52.8919C45.9016 52.8919 45.9016 52.8919 45.9016 52.8919C45.9016 52.8919 45.9016 52.8919 45.9016 52.8919C45.9016 52.8919 45.9016 52.8919 45.9016 52.8919C45.9016 52.8919 45.9016 52.8919 45.9016 52.8919C45.9016 52.8919 45.9016 52.8919 45.9016 52.8919C45.9016 52.8919 45.9016 52.8919 45.9016 52.8919C45.9016 52.8919 45.9016 52.8919 45.9016 52.8919C45.9016 52.8919 45.9016 52.8919 45.9016 52.8919C45.9016 52.8919 45.9016 52.8919 45.9016 52.8919C45.9016 52.8919 45.9016 52.8919 45.9016 52.8919C45.9016 52.8919 45.9016 52.8919 45.9016 52.8919C45.9016 52.8919 45.9016 52.8919 45.9016 52.8919C45.9016 52.8919 45.9016 52.8919 45.9016 52.8919C45.9016 52.8919 45.9016 52.8919 45.9016 52.8919C45.9016 52.8919 45.9016 52.8919 45.9016 52.8919C45.9016 52.8919 45.9016 52.8919 45.9016 52.8919C45.9016 52.8919 45.9016 52.8919 45.9015 52.8919C45.9015 52.8919 45.9015 52.8919 45.9015 52.8919C45.9015 52.8919 45.9015 52.8919 45.9015 52.8919C45.9015 52.8919 45.9015 52.8919 45.9015 52.8919C45.9015 52.8919 45.9015 52.8919 45.9015 52.8919C45.9015 52.8919 45.9015 52.8919 45.9015 52.8919C45.9015 52.8919 45.9015 52.8919 45.9015 52.8919C45.9015 52.8919 45.9015 52.8919 45.9015 52.8919C45.9015 52.8919 45.9015 52.8919 45.9015 52.8919C45.9015 52.8919 45.9015 52.8919 45.9015 52.8919C45.9015 52.8919 45.9015 52.8919 45.9015 52.8919C45.9015 52.8919 45.9015 52.8919 45.9015 52.8919C45.9015 52.8919 45.9015 52.8919 45.9015 52.8919C45.9015 52.8919 45.9015 52.8919 45.9015 52.8919C45.9015 52.8919 45.9015 52.8919 45.9015 52.8919C45.9015 52.8919 45.9015 52.8919 45.9015 52.8919C45.9015 52.8919 45.9015 52.8919 45.9015 52.8919C45.9015 52.8919 45.9015 52.8919 45.9015 52.8919C45.9015 52.8919 45.9015 52.8919 45.9015 52.8919C45.9015 52.8919 45.9015 52.8919 45.9015 52.8919C45.9015 52.8919 45.9015 52.8919 45.9015 52.8919C45.9015 52.8919 45.9015 52.8919 45.9014 52.8919C45.9014 52.8919 45.9014 52.8919 45.9014 52.8919C45.9014 52.8919 45.9014 52.8919 45.9014 52.8919C45.9014 52.8919 45.9014 52.8919 45.9014 52.8919C45.9014 52.8919 45.9014 52.8919 45.9014 52.8919C45.9014 52.8919 45.9014 52.8919 45.9014 52.8919C45.9014 52.8919 45.9014 52.8919 45.9014 52.8919C45.9014 52.8919 45.9014 52.8919 45.9014 52.8919C45.9014 52.8919 45.9014 52.8919 45.9014 52.8919C45.9014 52.8919 45.9014 52.8919 45.9014 52.8919C45.9014 52.8919 45.9014 52.8919 45.9014 52.8919C45.9014 52.8919 45.9014 52.8919 45.9014 52.8919C45.9014 52.8919 45.9014 52.8919 45.9014 52.8919C45.9014 52.8919 45.9014 52.8919 45.9014 52.8919C45.9014 52.8919 45.9014 52.8919 45.9014 52.8919C45.9014 52.8919 45.9014 52.8919 45.9014 52.8919C45.9014 52.8919 45.9014 52.8919 45.9014 52.8919C45.9014 52.8919 45.9014 52.8919 45.9014 52.8919C45.9014 52.8919 45.9014 52.8919 45.9014 52.8919C45.9014 52.8919 45.9014 52.8919 45.9014 52.8919C45.9014 52.8919 45.9014 52.8919 45.9014 52.8919C45.9014 52.8919 45.9014 52.8919 45.9014 52.8919C45.9013 52.8919 45.9013 52.8919 45.9013 52.8919C45.9013 52.8919 45.9013 52.8919 45.9013 52.8919C45.9013 52.8919 45.9013 52.8919 45.9013 52.8919C45.9013 52.8919 45.9013 52.8919 45.9013 52.8919C45.9013 52.8919 45.9013 52.8919 45.9013 52.8919C45.9013 52.8919 45.9013 52.8919 45.9013 52.8919C45.9013 52.8919 45.9013 52.8919 45.9013 52.8919C45.9013 52.8919 45.9013 52.8919 45.9013 52.8919C45.9013 52.8919 45.9013 52.8919 45.9013 52.8919C45.9013 52.8919 45.9013 52.8919 45.9013 52.8919C45.9013 52.8919 45.9013 52.8919 45.9013 52.8919C45.9013 52.8919 45.9013 52.8919 45.9013 52.8919C45.9013 52.8919 45.9013 52.8919 45.9013 52.8919C45.9013 52.8919 45.9013 52.8919 45.9013 52.8919C45.9013 52.8919 45.9013 52.8919 45.9013 52.8919C45.9013 52.8919 45.9013 52.8919 45.9013 52.8919C45.9013 52.8919 45.9013 52.8919 45.9013 52.8919C45.9013 52.8919 45.9013 52.8919 45.9013 52.8919C45.9013 52.8919 45.9013 52.8919 45.9013 52.8919C45.9013 52.8919 45.9013 52.8919 45.9013 52.8919C45.9013 52.8919 45.9013 52.8919 45.9013 52.8919C45.9013 52.8919 45.9012 52.8919 45.9012 52.8919C45.9012 52.8919 45.9012 52.8919 45.9012 52.8919C45.9012 52.8919 45.9012 52.8919 45.9012 52.8919C45.9012 52.8919 45.9012 52.8919 45.9012 52.8919C45.9012 52.8919 45.9012 52.8919 45.9012 52.8919C45.9012 52.8919 45.9012 52.8919 45.9012 52.8919C45.9012 52.8919 45.9012 52.8919 45.9012 52.8919C45.9012 52.8919 45.9012 52.8919 45.9012 52.8919C45.9012 52.8919 45.9012 52.8919 45.9012 52.8919C45.9012 52.8919 45.9012 52.8919 45.9012 52.8919C45.9012 52.8919 45.9012 52.8919 45.9012 52.8919C45.9012 52.8919 45.9012 52.8919 45.9012 52.8919C45.9012 52.8919 45.9012 52.8919 45.9012 52.8919C45.9012 52.8919 45.9012 52.8919 45.9012 52.8919C45.9012 52.8919 45.9012 52.8919 45.9012 52.8919C45.9012 52.8919 45.9012 52.8919 45.9012 52.8919C45.9012 52.8919 45.9012 52.8919 45.9012 52.8919C45.9012 52.8919 45.9012 52.8919 45.9012 52.8919C45.9012 52.8919 45.9012 52.8919 45.9012 52.8919C45.9012 52.8919 45.9012 52.8919 45.9012 52.8919C45.9012 52.8919 45.9012 52.8919 45.9012 52.8919C45.9012 52.8919 45.9012 52.8919 45.9011 52.8919C45.9011 52.8919 45.9011 52.8919 45.9011 52.8919C45.9011 52.8919 45.9011 52.8919 45.9011 52.8919C45.9011 52.8919 45.9011 52.8919 45.9011 52.8919C45.9011 52.8919 45.9011 52.8919 45.9011 52.8919C45.9011 52.8919 45.9011 52.8919 45.9011 52.8919C45.9011 52.8919 45.9011 52.8919 45.9011 52.8919C45.9011 52.8919 45.9011 52.8919 45.9011 52.8919C45.9011 52.8919 45.9011 52.8919 45.9011 52.8919C45.9011 52.8919 45.9011 52.8919 45.9011 52.8919C45.9011 52.8919 45.9011 52.8919 45.9011 52.8919C45.9011 52.8919 45.9011 52.8919 45.9011 52.8919C45.9011 52.8919 45.9011 52.8919 45.9011 52.8919C45.9011 52.8919 45.9011 52.8919 45.9011 52.8919C45.9011 52.8919 45.9011 52.8919 45.9011 52.8919C45.9011 52.8919 45.9011 52.8919 45.9011 52.8919C45.9011 52.8919 45.9011 52.8919 45.9011 52.8919C45.9011 52.8919 45.9011 52.8919 45.9011 52.8919C45.9011 52.8919 45.9011 52.8919 45.9011 52.8919C45.9011 52.8919 45.9011 52.8919 45.9011 52.8919C45.9011 52.8919 45.9011 52.8919 45.9011 52.8919C45.9011 52.8919 45.9011 52.8919 45.9011 52.8919C45.9011 52.8919 45.9011 52.8919 45.901 52.8919C45.901 52.8919 45.901 52.8919 45.901 52.8919C45.901 52.8919 45.901 52.8919 45.901 52.8919C45.901 52.8919 45.901 52.8919 45.901 52.8919C45.901 52.8919 45.901 52.8919 45.901 52.8919C45.901 52.8919 45.901 52.8919 45.901 52.8919C45.901 52.8919 45.901 52.8919 45.901 52.8919C45.901 52.8919 45.901 52.8919 45.901 52.8919C45.901 52.8919 45.901 52.8919 45.901 52.8919C45.901 52.8919 45.901 52.8919 45.901 52.8919C45.901 52.8919 45.901 52.8919 45.901 52.8919C45.901 52.8919 45.901 52.8919 45.901 52.8919C45.901 52.8919 45.901 52.8919 45.901 52.8919C45.901 52.8919 45.901 52.8919 45.901 52.8919C45.901 52.8919 45.901 52.8919 45.901 52.8919C45.901 52.8919 45.901 52.8919 45.901 52.8919C45.901 52.8919 45.901 52.8919 45.901 52.8919C45.901 52.8919 45.901 52.8919 45.901 52.8919C45.901 52.8919 45.901 52.8919 45.901 52.8919C45.901 52.8919 45.901 52.8919 45.901 52.8919C45.901 52.8919 45.901 52.8919 45.901 52.8919C45.901 52.8919 45.901 52.8919 45.901 52.8919C45.9009 52.8919 45.9009 52.8919 45.9009 52.8919C45.9009 52.8919 45.9009 52.8919 45.9009 52.8919C45.9009 52.8919 45.9009 52.8919 45.9009 52.8919C45.9009 52.8919 45.9009 52.8919 45.9009 52.8919C45.9009 52.8919 45.9009 52.8919 45.9009 52.8919C45.9009 52.8919 45.9009 52.8919 45.9009 52.8919C45.9009 52.8919 45.9009 52.8919 45.9009 52.8919C45.9009 52.8919 45.9009 52.8919 45.9009 52.8919C45.9009 52.8919 45.9009 52.8919 45.9009 52.8919C45.9009 52.8919 45.9009 52.8919 45.9009 52.8919C45.9009 52.8919 45.9009 52.8919 45.9009 52.8919C45.9009 52.8919 45.9009 52.8919 45.9009 52.8919C45.9009 52.8919 45.9009 52.8919 45.9009 52.8919C45.9009 52.8919 45.9009 52.8919 45.9009 52.8919C45.9009 52.8919 45.9009 52.8919 45.9009 52.8919C45.9009 52.8919 45.9009 52.8919 45.9009 52.8919C45.9009 52.8919 45.9009 52.8919 45.9009 52.8919C45.9009 52.8919 45.9009 52.8919 45.9009 52.8919C45.9009 52.8919 45.9009 52.8919 45.9009 52.8919C45.9009 52.8919 45.9009 52.8919 45.9009 52.8919C45.9009 52.8919 45.9009 52.8919 45.9009 52.8919C45.9009 52.8919 45.9008 52.8919 45.9008 52.8919C45.9008 52.8919 45.9008 52.8919 45.9008 52.8919C45.9008 52.8919 45.9008 52.8919 45.9008 52.8919C45.9008 52.8919 45.9008 52.8919 45.9008 52.8919C45.9008 52.8919 45.9008 52.8919 45.9008 52.8919C45.9008 52.8919 45.9008 52.8919 45.9008 52.8919C45.9008 52.8919 45.9008 52.8919 45.9008 52.8919C45.9008 52.8919 45.9008 52.8919 45.9008 52.8919C45.9008 52.8919 45.9008 52.8919 45.9008 52.8919C45.9008 52.8919 45.9008 52.8919 45.9008 52.8919C45.9008 52.8919 45.9008 52.8919 45.9008 52.8919C45.9008 52.8919 45.9008 52.8919 45.9008 52.8919C45.9008 52.8919 45.9008 52.8919 45.9008 52.8919C45.9008 52.8919 45.9008 52.8919 45.9008 52.8919C45.9008 52.8919 45.9008 52.8919 45.9008 52.8919C45.9008 52.8919 45.9008 52.8919 45.9008 52.8919C45.9008 52.8919 45.9008 52.8919 45.9008 52.8919C45.9008 52.8919 45.9008 52.8919 45.9008 52.8919C45.9008 52.8919 45.9008 52.8919 45.9008 52.8919C45.9008 52.8919 45.9008 52.8919 45.9008 52.8919C45.9008 52.8919 45.9008 52.8919 45.9008 52.8919C45.9008 52.8919 45.9008 52.8919 45.9007 52.8919C45.9007 52.8919 45.9007 52.8919 45.9007 52.8919C45.9007 52.8919 45.9007 52.8919 45.9007 52.8919C45.9007 52.8919 45.9007 52.8919 45.9007 52.8919C45.9007 52.8919 45.9007 52.8919 45.9007 52.8919C45.9007 52.8919 45.9007 52.8919 45.9007 52.8919C45.9007 52.8919 45.9007 52.8919 45.9007 52.8919C45.9007 52.8919 45.9007 52.8919 45.9007 52.8919C45.9007 52.8919 45.9007 52.8919 45.9007 52.8919C45.9007 52.8919 45.9007 52.8919 45.9007 52.8919C45.9007 52.8919 45.9007 52.8919 45.9007 52.8919C45.9007 52.8919 45.9007 52.8919 45.9007 52.8919V53.4748V54.0577C45.9007 54.0577 45.9007 54.0577 45.9007 54.0577C45.9007 54.0577 45.9007 54.0577 45.9007 54.0577C45.9007 54.0577 45.9007 54.0577 45.9007 54.0577C45.9007 54.0577 45.9007 54.0577 45.9007 54.0577C45.9007 54.0577 45.9007 54.0577 45.9007 54.0577C45.9007 54.0577 45.9007 54.0577 45.9007 54.0577C45.9007 54.0577 45.9007 54.0577 45.9007 54.0577C45.9007 54.0577 45.9007 54.0577 45.9007 54.0577C45.9007 54.0577 45.9007 54.0577 45.9007 54.0577C45.9007 54.0577 45.9007 54.0577 45.9007 54.0577C45.9007 54.0577 45.9007 54.0577 45.9007 54.0577C45.9008 54.0577 45.9008 54.0577 45.9008 54.0577C45.9008 54.0577 45.9008 54.0577 45.9008 54.0577C45.9008 54.0577 45.9008 54.0577 45.9008 54.0577C45.9008 54.0577 45.9008 54.0577 45.9008 54.0577C45.9008 54.0577 45.9008 54.0577 45.9008 54.0577C45.9008 54.0577 45.9008 54.0577 45.9008 54.0577C45.9008 54.0577 45.9008 54.0577 45.9008 54.0577C45.9008 54.0577 45.9008 54.0577 45.9008 54.0577C45.9008 54.0577 45.9008 54.0577 45.9008 54.0577C45.9008 54.0577 45.9008 54.0577 45.9008 54.0577C45.9008 54.0577 45.9008 54.0577 45.9008 54.0577C45.9008 54.0577 45.9008 54.0577 45.9008 54.0577C45.9008 54.0577 45.9008 54.0577 45.9008 54.0577C45.9008 54.0577 45.9008 54.0577 45.9008 54.0577C45.9008 54.0577 45.9008 54.0577 45.9008 54.0577C45.9008 54.0577 45.9008 54.0577 45.9008 54.0577C45.9008 54.0577 45.9008 54.0577 45.9008 54.0577C45.9008 54.0577 45.9008 54.0577 45.9008 54.0577C45.9008 54.0577 45.9008 54.0577 45.9008 54.0577C45.9008 54.0577 45.9008 54.0577 45.9008 54.0577C45.9008 54.0577 45.9008 54.0577 45.9008 54.0577C45.9008 54.0577 45.9009 54.0577 45.9009 54.0577C45.9009 54.0577 45.9009 54.0577 45.9009 54.0577C45.9009 54.0577 45.9009 54.0577 45.9009 54.0577C45.9009 54.0577 45.9009 54.0577 45.9009 54.0577C45.9009 54.0577 45.9009 54.0577 45.9009 54.0577C45.9009 54.0577 45.9009 54.0577 45.9009 54.0577C45.9009 54.0577 45.9009 54.0577 45.9009 54.0577C45.9009 54.0577 45.9009 54.0577 45.9009 54.0577C45.9009 54.0577 45.9009 54.0577 45.9009 54.0577C45.9009 54.0577 45.9009 54.0577 45.9009 54.0577C45.9009 54.0577 45.9009 54.0577 45.9009 54.0577C45.9009 54.0577 45.9009 54.0577 45.9009 54.0577C45.9009 54.0577 45.9009 54.0577 45.9009 54.0577C45.9009 54.0577 45.9009 54.0577 45.9009 54.0577C45.9009 54.0577 45.9009 54.0577 45.9009 54.0577C45.9009 54.0577 45.9009 54.0577 45.9009 54.0577C45.9009 54.0577 45.9009 54.0577 45.9009 54.0577C45.9009 54.0577 45.9009 54.0577 45.9009 54.0577C45.9009 54.0577 45.9009 54.0577 45.9009 54.0577C45.9009 54.0577 45.9009 54.0577 45.9009 54.0577C45.9009 54.0577 45.9009 54.0577 45.9009 54.0577C45.9009 54.0577 45.9009 54.0577 45.901 54.0577C45.901 54.0577 45.901 54.0577 45.901 54.0577C45.901 54.0577 45.901 54.0577 45.901 54.0577C45.901 54.0577 45.901 54.0577 45.901 54.0577C45.901 54.0577 45.901 54.0577 45.901 54.0577C45.901 54.0577 45.901 54.0577 45.901 54.0577C45.901 54.0577 45.901 54.0577 45.901 54.0577C45.901 54.0577 45.901 54.0577 45.901 54.0577C45.901 54.0577 45.901 54.0577 45.901 54.0577C45.901 54.0577 45.901 54.0577 45.901 54.0577C45.901 54.0577 45.901 54.0577 45.901 54.0577C45.901 54.0577 45.901 54.0577 45.901 54.0577C45.901 54.0577 45.901 54.0577 45.901 54.0577C45.901 54.0577 45.901 54.0577 45.901 54.0577C45.901 54.0577 45.901 54.0577 45.901 54.0577C45.901 54.0577 45.901 54.0577 45.901 54.0577C45.901 54.0577 45.901 54.0577 45.901 54.0577C45.901 54.0577 45.901 54.0577 45.901 54.0577C45.901 54.0577 45.901 54.0577 45.901 54.0577C45.901 54.0577 45.901 54.0577 45.901 54.0577C45.901 54.0577 45.901 54.0577 45.901 54.0577C45.901 54.0577 45.901 54.0577 45.901 54.0577C45.9011 54.0577 45.9011 54.0577 45.9011 54.0577C45.9011 54.0577 45.9011 54.0577 45.9011 54.0577C45.9011 54.0577 45.9011 54.0577 45.9011 54.0577C45.9011 54.0577 45.9011 54.0577 45.9011 54.0577C45.9011 54.0577 45.9011 54.0577 45.9011 54.0577C45.9011 54.0577 45.9011 54.0577 45.9011 54.0577C45.9011 54.0577 45.9011 54.0577 45.9011 54.0577C45.9011 54.0577 45.9011 54.0577 45.9011 54.0577C45.9011 54.0577 45.9011 54.0577 45.9011 54.0577C45.9011 54.0577 45.9011 54.0577 45.9011 54.0577C45.9011 54.0577 45.9011 54.0577 45.9011 54.0577C45.9011 54.0577 45.9011 54.0577 45.9011 54.0577C45.9011 54.0577 45.9011 54.0577 45.9011 54.0577C45.9011 54.0577 45.9011 54.0577 45.9011 54.0577C45.9011 54.0577 45.9011 54.0577 45.9011 54.0577C45.9011 54.0577 45.9011 54.0577 45.9011 54.0577C45.9011 54.0577 45.9011 54.0577 45.9011 54.0577C45.9011 54.0577 45.9011 54.0577 45.9011 54.0577C45.9011 54.0577 45.9011 54.0577 45.9011 54.0577C45.9011 54.0577 45.9011 54.0577 45.9011 54.0577C45.9011 54.0577 45.9011 54.0577 45.9011 54.0577C45.9011 54.0577 45.9011 54.0577 45.9011 54.0577C45.9012 54.0577 45.9012 54.0577 45.9012 54.0577C45.9012 54.0577 45.9012 54.0577 45.9012 54.0577C45.9012 54.0577 45.9012 54.0577 45.9012 54.0577C45.9012 54.0577 45.9012 54.0577 45.9012 54.0577C45.9012 54.0577 45.9012 54.0577 45.9012 54.0577C45.9012 54.0577 45.9012 54.0577 45.9012 54.0577C45.9012 54.0577 45.9012 54.0577 45.9012 54.0577C45.9012 54.0577 45.9012 54.0577 45.9012 54.0577C45.9012 54.0577 45.9012 54.0577 45.9012 54.0577C45.9012 54.0577 45.9012 54.0577 45.9012 54.0577C45.9012 54.0577 45.9012 54.0577 45.9012 54.0577C45.9012 54.0577 45.9012 54.0577 45.9012 54.0577C45.9012 54.0577 45.9012 54.0577 45.9012 54.0577C45.9012 54.0577 45.9012 54.0577 45.9012 54.0577C45.9012 54.0577 45.9012 54.0577 45.9012 54.0577C45.9012 54.0577 45.9012 54.0577 45.9012 54.0577C45.9012 54.0577 45.9012 54.0577 45.9012 54.0577C45.9012 54.0577 45.9012 54.0577 45.9012 54.0577C45.9012 54.0577 45.9012 54.0577 45.9012 54.0577C45.9012 54.0577 45.9012 54.0577 45.9012 54.0577C45.9012 54.0577 45.9012 54.0577 45.9012 54.0577C45.9012 54.0577 45.9013 54.0577 45.9013 54.0577C45.9013 54.0577 45.9013 54.0577 45.9013 54.0577C45.9013 54.0577 45.9013 54.0577 45.9013 54.0577C45.9013 54.0577 45.9013 54.0577 45.9013 54.0577C45.9013 54.0577 45.9013 54.0577 45.9013 54.0577C45.9013 54.0577 45.9013 54.0577 45.9013 54.0577C45.9013 54.0577 45.9013 54.0577 45.9013 54.0577C45.9013 54.0577 45.9013 54.0577 45.9013 54.0577C45.9013 54.0577 45.9013 54.0577 45.9013 54.0577C45.9013 54.0577 45.9013 54.0577 45.9013 54.0577C45.9013 54.0577 45.9013 54.0577 45.9013 54.0577C45.9013 54.0577 45.9013 54.0577 45.9013 54.0577C45.9013 54.0577 45.9013 54.0577 45.9013 54.0577C45.9013 54.0577 45.9013 54.0577 45.9013 54.0577C45.9013 54.0577 45.9013 54.0577 45.9013 54.0577C45.9013 54.0577 45.9013 54.0577 45.9013 54.0577C45.9013 54.0577 45.9013 54.0577 45.9013 54.0577C45.9013 54.0577 45.9013 54.0577 45.9013 54.0577C45.9013 54.0577 45.9013 54.0577 45.9013 54.0577C45.9013 54.0577 45.9013 54.0577 45.9013 54.0577C45.9013 54.0577 45.9013 54.0577 45.9013 54.0577C45.9013 54.0577 45.9013 54.0577 45.9014 54.0577C45.9014 54.0577 45.9014 54.0577 45.9014 54.0577C45.9014 54.0577 45.9014 54.0577 45.9014 54.0577C45.9014 54.0577 45.9014 54.0577 45.9014 54.0577C45.9014 54.0577 45.9014 54.0577 45.9014 54.0577C45.9014 54.0577 45.9014 54.0577 45.9014 54.0577C45.9014 54.0577 45.9014 54.0577 45.9014 54.0577C45.9014 54.0577 45.9014 54.0577 45.9014 54.0577C45.9014 54.0577 45.9014 54.0577 45.9014 54.0577C45.9014 54.0577 45.9014 54.0577 45.9014 54.0577C45.9014 54.0577 45.9014 54.0577 45.9014 54.0577C45.9014 54.0577 45.9014 54.0577 45.9014 54.0577C45.9014 54.0577 45.9014 54.0577 45.9014 54.0577C45.9014 54.0577 45.9014 54.0577 45.9014 54.0577C45.9014 54.0577 45.9014 54.0577 45.9014 54.0577C45.9014 54.0577 45.9014 54.0577 45.9014 54.0577C45.9014 54.0577 45.9014 54.0577 45.9014 54.0577C45.9014 54.0577 45.9014 54.0577 45.9014 54.0577C45.9014 54.0577 45.9014 54.0577 45.9014 54.0577C45.9014 54.0577 45.9014 54.0577 45.9014 54.0577C45.9014 54.0577 45.9014 54.0577 45.9014 54.0577C45.9014 54.0577 45.9014 54.0577 45.9014 54.0577C45.9015 54.0577 45.9015 54.0577 45.9015 54.0577C45.9015 54.0577 45.9015 54.0577 45.9015 54.0577C45.9015 54.0577 45.9015 54.0577 45.9015 54.0577C45.9015 54.0577 45.9015 54.0577 45.9015 54.0577C45.9015 54.0577 45.9015 54.0577 45.9015 54.0577C45.9015 54.0577 45.9015 54.0577 45.9015 54.0577C45.9015 54.0577 45.9015 54.0577 45.9015 54.0577C45.9015 54.0577 45.9015 54.0577 45.9015 54.0577C45.9015 54.0577 45.9015 54.0577 45.9015 54.0577C45.9015 54.0577 45.9015 54.0577 45.9015 54.0577C45.9015 54.0577 45.9015 54.0577 45.9015 54.0577C45.9015 54.0577 45.9015 54.0577 45.9015 54.0577C45.9015 54.0577 45.9015 54.0577 45.9015 54.0577C45.9015 54.0577 45.9015 54.0577 45.9015 54.0577C45.9015 54.0577 45.9015 54.0577 45.9015 54.0577C45.9015 54.0577 45.9015 54.0577 45.9015 54.0577C45.9015 54.0577 45.9015 54.0577 45.9015 54.0577C45.9015 54.0577 45.9015 54.0577 45.9015 54.0577C45.9015 54.0577 45.9015 54.0577 45.9015 54.0577C45.9015 54.0577 45.9015 54.0577 45.9015 54.0577C45.9015 54.0577 45.9015 54.0577 45.9015 54.0577C45.9016 54.0577 45.9016 54.0577 45.9016 54.0577C45.9016 54.0577 45.9016 54.0577 45.9016 54.0577C45.9016 54.0577 45.9016 54.0577 45.9016 54.0577C45.9016 54.0577 45.9016 54.0577 45.9016 54.0577C45.9016 54.0577 45.9016 54.0577 45.9016 54.0577C45.9016 54.0577 45.9016 54.0577 45.9016 54.0577C45.9016 54.0577 45.9016 54.0577 45.9016 54.0577C45.9016 54.0577 45.9016 54.0577 45.9016 54.0577C45.9016 54.0577 45.9016 54.0577 45.9016 54.0577C45.9016 54.0577 45.9016 54.0577 45.9016 54.0577C45.9016 54.0577 45.9016 54.0577 45.9016 54.0577C45.9016 54.0577 45.9016 54.0577 45.9016 54.0577C45.9016 54.0577 45.9016 54.0577 45.9016 54.0577C45.9016 54.0577 45.9016 54.0577 45.9016 54.0577C45.9016 54.0577 45.9016 54.0577 45.9016 54.0577C45.9016 54.0577 45.9016 54.0577 45.9016 54.0577C45.9016 54.0577 45.9016 54.0577 45.9016 54.0577C45.9016 54.0577 45.9016 54.0577 45.9016 54.0577C45.9016 54.0577 45.9016 54.0577 45.9016 54.0577C45.9016 54.0577 45.9016 54.0577 45.9016 54.0577C45.9016 54.0577 45.9016 54.0577 45.9016 54.0577C45.9016 54.0577 45.9016 54.0577 45.9016 54.0577C45.9016 54.0577 45.9017 54.0577 45.9017 54.0577C45.9017 54.0577 45.9017 54.0577 45.9017 54.0577C45.9017 54.0577 45.9017 54.0577 45.9017 54.0577C45.9017 54.0577 45.9017 54.0577 45.9017 54.0577C45.9017 54.0577 45.9017 54.0577 45.9017 54.0577C45.9017 54.0577 45.9017 54.0577 45.9017 54.0577C45.9017 54.0577 45.9017 54.0577 45.9017 54.0577C45.9017 54.0577 45.9017 54.0577 45.9017 54.0577C45.9017 54.0577 45.9017 54.0577 45.9017 54.0577C45.9017 54.0577 45.9017 54.0577 45.9017 54.0577C45.9017 54.0577 45.9017 54.0577 45.9017 54.0577C45.9017 54.0577 45.9017 54.0577 45.9017 54.0577C45.9017 54.0577 45.9017 54.0577 45.9017 54.0577C45.9017 54.0577 45.9017 54.0577 45.9017 54.0577C45.9017 54.0577 45.9017 54.0577 45.9017 54.0577C45.9017 54.0577 45.9017 54.0577 45.9017 54.0577C45.9017 54.0577 45.9017 54.0577 45.9017 54.0577C45.9017 54.0577 45.9017 54.0577 45.9017 54.0577C45.9017 54.0577 45.9017 54.0577 45.9017 54.0577C45.9017 54.0577 45.9017 54.0577 45.9017 54.0577C45.9017 54.0577 45.9017 54.0577 45.9017 54.0577C45.9017 54.0577 45.9017 54.0577 45.9018 54.0577C45.9018 54.0577 45.9018 54.0577 45.9018 54.0577C45.9018 54.0577 45.9018 54.0577 45.9018 54.0577C45.9018 54.0577 45.9018 54.0577 45.9018 54.0577C45.9018 54.0577 45.9018 54.0577 45.9018 54.0577C45.9018 54.0577 45.9018 54.0577 45.9018 54.0577C45.9018 54.0577 45.9018 54.0577 45.9018 54.0577C45.9018 54.0577 45.9018 54.0577 45.9018 54.0577C45.9018 54.0577 45.9018 54.0577 45.9018 54.0577C45.9018 54.0577 45.9018 54.0577 45.9018 54.0577C45.9018 54.0577 45.9018 54.0577 45.9018 54.0577C45.9018 54.0577 45.9018 54.0577 45.9018 54.0577C45.9018 54.0577 45.9018 54.0577 45.9018 54.0577C45.9018 54.0577 45.9018 54.0577 45.9018 54.0577C45.9018 54.0577 45.9018 54.0577 45.9018 54.0577C45.9018 54.0577 45.9018 54.0577 45.9018 54.0577C45.9018 54.0577 45.9018 54.0577 45.9018 54.0577C45.9018 54.0577 45.9018 54.0577 45.9018 54.0577C45.9018 54.0577 45.9018 54.0577 45.9018 54.0577C45.9018 54.0577 45.9018 54.0577 45.9018 54.0577C45.9018 54.0577 45.9018 54.0577 45.9018 54.0577C45.9018 54.0577 45.9018 54.0577 45.9019 54.0577C45.9019 54.0577 45.9019 54.0577 45.9019 54.0577C45.9019 54.0577 45.9019 54.0577 45.9019 54.0577C45.9019 54.0577 45.9019 54.0577 45.9019 54.0577C45.9019 54.0577 45.9019 54.0577 45.9019 54.0577C45.9019 54.0577 45.9019 54.0577 45.9019 54.0577C45.9019 54.0577 45.9019 54.0577 45.9019 54.0577C45.9019 54.0577 45.9019 54.0577 45.9019 54.0577C45.9019 54.0577 45.9019 54.0577 45.9019 54.0577C45.9019 54.0577 45.9019 54.0577 45.9019 54.0577C45.9019 54.0577 45.9019 54.0577 45.9019 54.0577C45.9019 54.0577 45.9019 54.0577 45.9019 54.0577C45.9019 54.0577 45.9019 54.0577 45.9019 54.0577C45.9019 54.0577 45.9019 54.0577 45.9019 54.0577C45.9019 54.0577 45.9019 54.0577 45.9019 54.0577C45.9019 54.0577 45.9019 54.0577 45.9019 54.0577C45.9019 54.0577 45.9019 54.0577 45.9019 54.0577C45.9019 54.0577 45.9019 54.0577 45.9019 54.0577C45.9019 54.0577 45.9019 54.0577 45.9019 54.0577C45.9019 54.0577 45.9019 54.0577 45.9019 54.0577C45.9019 54.0577 45.9019 54.0577 45.9019 54.0577C45.9019 54.0577 45.9019 54.0577 45.9019 54.0577C45.902 54.0577 45.902 54.0577 45.902 54.0577C45.902 54.0577 45.902 54.0577 45.902 54.0577C45.902 54.0577 45.902 54.0577 45.902 54.0577C45.902 54.0577 45.902 54.0577 45.902 54.0577C45.902 54.0577 45.902 54.0577 45.902 54.0577C45.902 54.0577 45.902 54.0577 45.902 54.0577C45.902 54.0577 45.902 54.0577 45.902 54.0577C45.902 54.0577 45.902 54.0577 45.902 54.0577C45.902 54.0577 45.902 54.0577 45.902 54.0577C45.902 54.0577 45.902 54.0577 45.902 54.0577C45.902 54.0577 45.902 54.0577 45.902 54.0577C45.902 54.0577 45.902 54.0577 45.902 54.0577C45.902 54.0577 45.902 54.0577 45.902 54.0577C45.902 54.0577 45.902 54.0577 45.902 54.0577C45.902 54.0577 45.902 54.0577 45.902 54.0577C45.902 54.0577 45.902 54.0577 45.902 54.0577C45.902 54.0577 45.902 54.0577 45.902 54.0577C45.902 54.0577 45.902 54.0577 45.902 54.0577C45.902 54.0577 45.902 54.0577 45.902 54.0577C45.902 54.0577 45.902 54.0577 45.902 54.0577C45.902 54.0577 45.902 54.0577 45.902 54.0577C45.902 54.0577 45.9021 54.0577 45.9021 54.0577C45.9021 54.0577 45.9021 54.0577 45.9021 54.0577C45.9021 54.0577 45.9021 54.0577 45.9021 54.0577C45.9021 54.0577 45.9021 54.0577 45.9021 54.0577C45.9021 54.0577 45.9021 54.0577 45.9021 54.0577C45.9021 54.0577 45.9021 54.0577 45.9021 54.0577C45.9021 54.0577 45.9021 54.0577 45.9021 54.0577C45.9021 54.0577 45.9021 54.0577 45.9021 54.0577C45.9021 54.0577 45.9021 54.0577 45.9021 54.0577C45.9021 54.0577 45.9021 54.0577 45.9021 54.0577C45.9021 54.0577 45.9021 54.0577 45.9021 54.0577C45.9021 54.0577 45.9021 54.0577 45.9021 54.0577C45.9021 54.0577 45.9021 54.0577 45.9021 54.0577C45.9021 54.0577 45.9021 54.0577 45.9021 54.0577C45.9021 54.0577 45.9021 54.0577 45.9021 54.0577C45.9021 54.0577 45.9021 54.0577 45.9021 54.0577C45.9021 54.0577 45.9021 54.0577 45.9021 54.0577C45.9021 54.0577 45.9021 54.0577 45.9021 54.0577C45.9021 54.0577 45.9021 54.0577 45.9021 54.0577C45.9021 54.0577 45.9021 54.0577 45.9021 54.0577C45.9021 54.0577 45.9021 54.0577 45.9021 54.0577C45.9021 54.0577 45.9021 54.0577 45.9021 54.0577C45.9021 54.0577 45.9022 54.0577 45.9022 54.0577C45.9022 54.0577 45.9022 54.0577 45.9022 54.0577C45.9022 54.0577 45.9022 54.0577 45.9022 54.0577C45.9022 54.0577 45.9022 54.0577 45.9022 54.0577C45.9022 54.0577 45.9022 54.0577 45.9022 54.0577C45.9022 54.0577 45.9022 54.0577 45.9022 54.0577C45.9022 54.0577 45.9022 54.0577 45.9022 54.0577C45.9022 54.0577 45.9022 54.0577 45.9022 54.0577C45.9022 54.0577 45.9022 54.0577 45.9022 54.0577C45.9022 54.0577 45.9022 54.0577 45.9022 54.0577C45.9022 54.0577 45.9022 54.0577 45.9022 54.0577C45.9022 54.0577 45.9022 54.0577 45.9022 54.0577C45.9022 54.0577 45.9022 54.0577 45.9022 54.0577C45.9022 54.0577 45.9022 54.0577 45.9022 54.0577C45.9022 54.0577 45.9022 54.0577 45.9022 54.0577C45.9022 54.0577 45.9022 54.0577 45.9022 54.0577C45.9022 54.0577 45.9022 54.0577 45.9022 54.0577C45.9022 54.0577 45.9022 54.0577 45.9022 54.0577C45.9022 54.0577 45.9022 54.0577 45.9022 54.0577C45.9022 54.0577 45.9022 54.0577 45.9022 54.0577C45.9022 54.0577 45.9022 54.0577 45.9022 54.0577C45.9022 54.0577 45.9022 54.0577 45.9023 54.0577C45.9023 54.0577 45.9023 54.0577 45.9023 54.0577C45.9023 54.0577 45.9023 54.0577 45.9023 54.0577C45.9023 54.0577 45.9023 54.0577 45.9023 54.0577C45.9023 54.0577 45.9023 54.0577 45.9023 54.0577C45.9023 54.0577 45.9023 54.0577 45.9023 54.0577C45.9023 54.0577 45.9023 54.0577 45.9023 54.0577C45.9023 54.0577 45.9023 54.0577 45.9023 54.0577C45.9023 54.0577 45.9023 54.0577 45.9023 54.0577C45.9023 54.0577 45.9023 54.0577 45.9023 54.0577C45.9023 54.0577 45.9023 54.0577 45.9023 54.0577C45.9023 54.0577 45.9023 54.0577 45.9023 54.0577C45.9023 54.0577 45.9023 54.0577 45.9023 54.0577C45.9023 54.0577 45.9023 54.0577 45.9023 54.0577C45.9023 54.0577 45.9023 54.0577 45.9023 54.0577C45.9023 54.0577 45.9023 54.0577 45.9023 54.0577C45.9023 54.0577 45.9023 54.0577 45.9023 54.0577C45.9023 54.0577 45.9023 54.0577 45.9023 54.0577C45.9023 54.0577 45.9023 54.0577 45.9023 54.0577C45.9023 54.0577 45.9023 54.0577 45.9023 54.0577C45.9023 54.0577 45.9023 54.0577 45.9023 54.0577C45.9023 54.0577 45.9023 54.0577 45.9023 54.0577C45.9024 54.0577 45.9024 54.0577 45.9024 54.0577C45.9024 54.0577 45.9024 54.0577 45.9024 54.0577C45.9024 54.0577 45.9024 54.0577 45.9024 54.0577C45.9024 54.0577 45.9024 54.0577 45.9024 54.0577C45.9024 54.0577 45.9024 54.0577 45.9024 54.0577C45.9024 54.0577 45.9024 54.0577 45.9024 54.0577C45.9024 54.0577 45.9024 54.0577 45.9024 54.0577C45.9024 54.0577 45.9024 54.0577 45.9024 54.0577C45.9024 54.0577 45.9024 54.0577 45.9024 54.0577C45.9024 54.0577 45.9024 54.0577 45.9024 54.0577C45.9024 54.0577 45.9024 54.0577 45.9024 54.0577C45.9024 54.0577 45.9024 54.0577 45.9024 54.0577C45.9024 54.0577 45.9024 54.0577 45.9024 54.0577C45.9024 54.0577 45.9024 54.0577 45.9024 54.0577C45.9024 54.0577 45.9024 54.0577 45.9024 54.0577C45.9024 54.0577 45.9024 54.0577 45.9024 54.0577C45.9024 54.0577 45.9024 54.0577 45.9024 54.0577C45.9024 54.0577 45.9024 54.0577 45.9024 54.0577C45.9024 54.0577 45.9024 54.0577 45.9024 54.0577C45.9024 54.0577 45.9024 54.0577 45.9024 54.0577C45.9024 54.0577 45.9024 54.0577 45.9024 54.0577C45.9024 54.0577 45.9025 54.0577 45.9025 54.0577C45.9025 54.0577 45.9025 54.0577 45.9025 54.0577C45.9025 54.0577 45.9025 54.0577 45.9025 54.0577C45.9025 54.0577 45.9025 54.0577 45.9025 54.0577C45.9025 54.0577 45.9025 54.0577 45.9025 54.0577C45.9025 54.0577 45.9025 54.0577 45.9025 54.0577C45.9025 54.0577 45.9025 54.0577 45.9025 54.0577C45.9025 54.0577 45.9025 54.0577 45.9025 54.0577C45.9025 54.0577 45.9025 54.0577 45.9025 54.0577C45.9025 54.0577 45.9025 54.0577 45.9025 54.0577C45.9025 54.0577 45.9025 54.0577 45.9025 54.0577C45.9025 54.0577 45.9025 54.0577 45.9025 54.0577C45.9025 54.0577 45.9025 54.0577 45.9025 54.0577C45.9025 54.0577 45.9025 54.0577 45.9025 54.0577C45.9025 54.0577 45.9025 54.0577 45.9025 54.0577C45.9025 54.0577 45.9025 54.0577 45.9025 54.0577C45.9025 54.0577 45.9025 54.0577 45.9025 54.0577C45.9025 54.0577 45.9025 54.0577 45.9025 54.0577C45.9025 54.0577 45.9025 54.0577 45.9025 54.0577C45.9025 54.0577 45.9025 54.0577 45.9025 54.0577C45.9025 54.0577 45.9025 54.0577 45.9025 54.0577C45.9025 54.0577 45.9025 54.0577 45.9025 54.0577C45.9025 54.0577 45.9026 54.0577 45.9026 54.0577C45.9026 54.0577 45.9026 54.0577 45.9026 54.0577C45.9026 54.0577 45.9026 54.0577 45.9026 54.0577C45.9026 54.0577 45.9026 54.0577 45.9026 54.0577C45.9026 54.0577 45.9026 54.0577 45.9026 54.0577C45.9026 54.0577 45.9026 54.0577 45.9026 54.0577C45.9026 54.0577 45.9026 54.0577 45.9026 54.0577C45.9026 54.0577 45.9026 54.0577 45.9026 54.0577C45.9026 54.0577 45.9026 54.0577 45.9026 54.0577C45.9026 54.0577 45.9026 54.0577 45.9026 54.0577C45.9026 54.0577 45.9026 54.0577 45.9026 54.0577C45.9026 54.0577 45.9026 54.0577 45.9026 54.0577C45.9026 54.0577 45.9026 54.0577 45.9026 54.0577C45.9026 54.0577 45.9026 54.0577 45.9026 54.0577C45.9026 54.0577 45.9026 54.0577 45.9026 54.0577C45.9026 54.0577 45.9026 54.0577 45.9026 54.0577C45.9026 54.0577 45.9026 54.0577 45.9026 54.0577C45.9026 54.0577 45.9026 54.0577 45.9026 54.0577C45.9026 54.0577 45.9026 54.0577 45.9026 54.0577C45.9026 54.0577 45.9026 54.0577 45.9026 54.0577C45.9026 54.0577 45.9026 54.0577 45.9026 54.0577C45.9026 54.0577 45.9026 54.0577 45.9027 54.0577C45.9027 54.0577 45.9027 54.0577 45.9027 54.0577C45.9027 54.0577 45.9027 54.0577 45.9027 54.0577C45.9027 54.0577 45.9027 54.0577 45.9027 54.0577C45.9027 54.0577 45.9027 54.0577 45.9027 54.0577C45.9027 54.0577 45.9027 54.0577 45.9027 54.0577C45.9027 54.0577 45.9027 54.0577 45.9027 54.0577C45.9027 54.0577 45.9027 54.0577 45.9027 54.0577C45.9027 54.0577 45.9027 54.0577 45.9027 54.0577C45.9027 54.0577 45.9027 54.0577 45.9027 54.0577C45.9027 54.0577 45.9027 54.0577 45.9027 54.0577C45.9027 54.0577 45.9027 54.0577 45.9027 54.0577C45.9027 54.0577 45.9027 54.0577 45.9027 54.0577C45.9027 54.0577 45.9027 54.0577 45.9027 54.0577C45.9027 54.0577 45.9027 54.0577 45.9027 54.0577C45.9027 54.0577 45.9027 54.0577 45.9027 54.0577C45.9027 54.0577 45.9027 54.0577 45.9027 54.0577C45.9027 54.0577 45.9027 54.0577 45.9027 54.0577C45.9027 54.0577 45.9027 54.0577 45.9027 54.0577C45.9027 54.0577 45.9027 54.0577 45.9027 54.0577C45.9027 54.0577 45.9027 54.0577 45.9027 54.0577C45.9027 54.0577 45.9027 54.0577 45.9027 54.0577C45.9028 54.0577 45.9028 54.0577 45.9028 54.0577C45.9028 54.0577 45.9028 54.0577 45.9028 54.0577C45.9028 54.0577 45.9028 54.0577 45.9028 54.0577C45.9028 54.0577 45.9028 54.0577 45.9028 54.0577C45.9028 54.0577 45.9028 54.0577 45.9028 54.0577C45.9028 54.0577 45.9028 54.0577 45.9028 54.0577C45.9028 54.0577 45.9028 54.0577 45.9028 54.0577C45.9028 54.0577 45.9028 54.0577 45.9028 54.0577C45.9028 54.0577 45.9028 54.0577 45.9028 54.0577C45.9028 54.0577 45.9028 54.0577 45.9028 54.0577C45.9028 54.0577 45.9028 54.0577 45.9028 54.0577C45.9028 54.0577 45.9028 54.0577 45.9028 54.0577C45.9028 54.0577 45.9028 54.0577 45.9028 54.0577C45.9028 54.0577 45.9028 54.0577 45.9028 54.0577C45.9028 54.0577 45.9028 54.0577 45.9028 54.0577C45.9028 54.0577 45.9028 54.0577 45.9028 54.0577C45.9028 54.0577 45.9028 54.0577 45.9028 54.0577C45.9028 54.0577 45.9028 54.0577 45.9028 54.0577C45.9028 54.0577 45.9028 54.0577 45.9028 54.0577C45.9028 54.0577 45.9028 54.0577 45.9028 54.0577C45.9028 54.0577 45.9028 54.0577 45.9028 54.0577C45.9028 54.0577 45.9029 54.0577 45.9029 54.0577C45.9029 54.0577 45.9029 54.0577 45.9029 54.0577C45.9029 54.0577 45.9029 54.0577 45.9029 54.0577C45.9029 54.0577 45.9029 54.0577 45.9029 54.0577C45.9029 54.0577 45.9029 54.0577 45.9029 54.0577C45.9029 54.0577 45.9029 54.0577 45.9029 54.0577C45.9029 54.0577 45.9029 54.0577 45.9029 54.0577C45.9029 54.0577 45.9029 54.0577 45.9029 54.0577C45.9029 54.0577 45.9029 54.0577 45.9029 54.0577C45.9029 54.0577 45.9029 54.0577 45.9029 54.0577C45.9029 54.0577 45.9029 54.0577 45.9029 54.0577C45.9029 54.0577 45.9029 54.0577 45.9029 54.0577C45.9029 54.0577 45.9029 54.0577 45.9029 54.0577C45.9029 54.0577 45.9029 54.0577 45.9029 54.0577C45.9029 54.0577 45.9029 54.0577 45.9029 54.0577C45.9029 54.0577 45.9029 54.0577 45.9029 54.0577C45.9029 54.0577 45.9029 54.0577 45.9029 54.0577C45.9029 54.0577 45.9029 54.0577 45.9029 54.0577C45.9029 54.0577 45.9029 54.0577 45.9029 54.0577C45.9029 54.0577 45.9029 54.0577 45.9029 54.0577C45.9029 54.0577 45.9029 54.0577 45.9029 54.0577C45.9029 54.0577 45.9029 54.0577 45.903 54.0577C45.903 54.0577 45.903 54.0577 45.903 54.0577C45.903 54.0577 45.903 54.0577 45.903 54.0577C45.903 54.0577 45.903 54.0577 45.903 54.0577C45.903 54.0577 45.903 54.0577 45.903 54.0577C45.903 54.0577 45.903 54.0577 45.903 54.0577C45.903 54.0577 45.903 54.0577 45.903 54.0577C45.903 54.0577 45.903 54.0577 45.903 54.0577C45.903 54.0577 45.903 54.0577 45.903 54.0577C45.903 54.0577 45.903 54.0577 45.903 54.0577C45.903 54.0577 45.903 54.0577 45.903 54.0577C45.903 54.0577 45.903 54.0577 45.903 54.0577C45.903 54.0577 45.903 54.0577 45.903 54.0577C45.903 54.0577 45.903 54.0577 45.903 54.0577C45.903 54.0577 45.903 54.0577 45.903 54.0577C45.903 54.0577 45.903 54.0577 45.903 54.0577C45.903 54.0577 45.903 54.0577 45.903 54.0577C45.903 54.0577 45.903 54.0577 45.903 54.0577C45.903 54.0577 45.903 54.0577 45.903 54.0577C45.903 54.0577 45.903 54.0577 45.903 54.0577C45.903 54.0577 45.903 54.0577 45.903 54.0577C45.903 54.0577 45.903 54.0577 45.903 54.0577C45.903 54.0577 45.903 54.0577 45.903 54.0577C45.9031 54.0577 45.9031 54.0577 45.9031 54.0577C45.9031 54.0577 45.9031 54.0577 45.9031 54.0577C45.9031 54.0577 45.9031 54.0577 45.9031 54.0577C45.9031 54.0577 45.9031 54.0577 45.9031 54.0577C45.9031 54.0577 45.9031 54.0577 45.9031 54.0577C45.9031 54.0577 45.9031 54.0577 45.9031 54.0577C45.9031 54.0577 45.9031 54.0577 45.9031 54.0577V53.4748Z" fill="url(#paint4_linear_700_2027)" mask="url(#path-2-inside-1_700_2027)"/>
</g>
<g filter="url(#filter1_d_700_2027)">
<path d="M28.2731 28.3661C28.2731 27.1729 29.2404 26.2056 30.4336 26.2056C31.6268 26.2056 32.5941 27.1729 32.5941 28.3661V34.1275H33.1167C34.7736 34.1275 35.602 34.1275 36.0023 34.4604C36.35 34.7497 36.5417 35.1854 36.5199 35.6371C36.4949 36.1572 35.9351 36.7679 34.8155 37.9892L33.8312 39.063C32.6523 40.3491 32.0629 40.9921 31.3713 41.2302C30.7637 41.4394 30.1036 41.4394 29.4959 41.2302C28.8043 40.9921 28.2149 40.3491 27.036 39.063L26.0517 37.9892C24.9321 36.7679 24.3723 36.1572 24.3473 35.6371C24.3255 35.1854 24.5172 34.7497 24.8649 34.4604C25.2652 34.1275 26.0937 34.1275 27.7505 34.1275H28.2731V28.3661Z" fill="#CCF7FF"/>
<path d="M30.4336 26.3853C31.5273 26.3853 32.4139 27.2721 32.4141 28.3657V34.3071H33.1172C33.9489 34.3071 34.5605 34.3074 35.0146 34.3481C35.4736 34.3893 35.7317 34.4703 35.8867 34.5991C36.1909 34.8522 36.3589 35.2332 36.3398 35.6284C36.3301 35.8298 36.2153 36.0748 35.9355 36.4409C35.6586 36.8033 35.2448 37.2544 34.6826 37.8677L33.6982 38.9409C33.1069 39.586 32.6711 40.0618 32.2969 40.4067C31.924 40.7504 31.6247 40.9526 31.3125 41.0601C30.743 41.2561 30.1242 41.2561 29.5547 41.0601C29.2425 40.9526 28.9432 40.7504 28.5703 40.4067C28.1961 40.0618 27.7602 39.586 27.1689 38.9409L26.1846 37.8677C25.6224 37.2544 25.2086 36.8033 24.9316 36.4409C24.6519 36.0748 24.537 35.8298 24.5273 35.6284C24.5083 35.2332 24.6762 34.8522 24.9805 34.5991C25.1355 34.4703 25.3936 34.3893 25.8525 34.3481C26.3068 34.3074 26.919 34.3071 27.751 34.3071H28.4531V28.3657C28.4533 27.2721 29.3399 26.3853 30.4336 26.3853Z" stroke="url(#paint5_linear_700_2027)" stroke-width="0.360086"/>
</g>
<defs>
<filter id="filter0_d_700_2027" x="-1.86241" y="7.1664" width="65.9804" height="50.3567" filterUnits="userSpaceOnUse" color-interpolation-filters="sRGB">
<feFlood flood-opacity="0" result="BackgroundImageFix"/>
<feColorMatrix in="SourceAlpha" type="matrix" values="0 0 0 0 0 0 0 0 0 0 0 0 0 0 0 0 0 0 127 0" result="hardAlpha"/>
<feOffset dx="1.45727"/>
<feGaussianBlur stdDeviation="1.82158"/>
<feColorMatrix type="matrix" values="0 0 0 0 0.00392157 0 0 0 0 0.223529 0 0 0 0 0.470588 0 0 0 0.39739 0"/>
<feBlend mode="normal" in2="BackgroundImageFix" result="effect1_dropShadow_700_2027"/>
<feBlend mode="normal" in="SourceGraphic" in2="effect1_dropShadow_700_2027" result="shape"/>
</filter>
<clipPath id="bgblur_0_700_2027_clip_path" transform="translate(1.86241 -7.1664)"><path fill-rule="evenodd" clip-rule="evenodd" d="M45.9007 53.4748V53.475H15.2981V53.4748C8.05599 53.4732 2.18555 47.6019 2.18555 40.3594C2.18555 33.8442 6.93609 28.4386 13.1623 27.4175C13.8197 18.3591 21.377 11.2144 30.603 11.2144C39.8292 11.2144 47.3866 18.3593 48.0438 27.4178C54.269 28.4398 59.0185 33.845 59.0185 40.3594C59.0185 47.6028 53.1465 53.4748 45.9031 53.4748C45.9023 53.4748 45.9015 53.4748 45.9007 53.4748Z"/>
</clipPath><filter id="filter1_d_700_2027" x="21.465" y="24.7652" width="17.9372" height="20.943" filterUnits="userSpaceOnUse" color-interpolation-filters="sRGB">
<feFlood flood-opacity="0" result="BackgroundImageFix"/>
<feColorMatrix in="SourceAlpha" type="matrix" values="0 0 0 0 0 0 0 0 0 0 0 0 0 0 0 0 0 0 127 0" result="hardAlpha"/>
<feOffset dy="1.44034"/>
<feGaussianBlur stdDeviation="1.44034"/>
<feColorMatrix type="matrix" values="0 0 0 0 0.085809 0 0 0 0 0.227148 0 0 0 0 0.433457 0 0 0 0.603327 0"/>
<feBlend mode="normal" in2="BackgroundImageFix" result="effect1_dropShadow_700_2027"/>
<feBlend mode="normal" in="SourceGraphic" in2="effect1_dropShadow_700_2027" result="shape"/>
</filter>
<linearGradient id="paint0_linear_700_2027" x1="38.5259" y1="56.6836" x2="71.8811" y2="26.5889" gradientUnits="userSpaceOnUse">
<stop stop-color="#10ACFF"/>
<stop offset="1" stop-color="#3CE5FF"/>
</linearGradient>
<linearGradient id="paint1_linear_700_2027" x1="23.4785" y1="12.0816" x2="31.042" y2="45.4367" gradientUnits="userSpaceOnUse">
<stop stop-color="#43EAFE"/>
<stop offset="1" stop-color="#21689F"/>
</linearGradient>
<linearGradient id="paint2_linear_700_2027" x1="-32.9988" y1="32.8683" x2="16.7361" y2="93.6047" gradientUnits="userSpaceOnUse">
<stop stop-color="#14B1FF"/>
<stop offset="1" stop-color="#F1FFFC"/>
</linearGradient>
<linearGradient id="paint3_linear_700_2027" x1="47.7421" y1="53.475" x2="47.7421" y2="11.2144" gradientUnits="userSpaceOnUse">
<stop stop-color="#00D9FF" stop-opacity="0.344628"/>
<stop offset="1" stop-color="white" stop-opacity="0.195301"/>
</linearGradient>
<linearGradient id="paint4_linear_700_2027" x1="69.1405" y1="46.0772" x2="57.6328" y2="-0.792125" gradientUnits="userSpaceOnUse">
<stop stop-color="#2C71C5"/>
<stop offset="0.463482" stop-color="#11A5D4"/>
<stop offset="1" stop-color="#45B9E0"/>
</linearGradient>
<linearGradient id="paint5_linear_700_2027" x1="32.5086" y1="40.3717" x2="36.4539" y2="44.5605" gradientUnits="userSpaceOnUse">
<stop stop-color="#C2EDFF"/>
<stop offset="1" stop-color="#5EA9BB" stop-opacity="0.470207"/>
</linearGradient>
</defs>
</svg>
