<svg width="1440" height="480" viewBox="0 0 1440 480" fill="none" xmlns="http://www.w3.org/2000/svg">
<g clip-path="url(#clip0_700_1143)">
<g filter="url(#filter0_f_700_1143)">
<path d="M808.964 198.681C493.954 277.569 522.551 366.267 520.537 395.961C342.538 454.717 183.077 461.655 164.371 411.457C145.665 361.259 347.438 390.206 414.554 184.788C592.553 126.031 1164.21 180.281 808.964 198.681Z" fill="url(#paint0_linear_700_1143)"/>
</g>
<g filter="url(#filter1_f_700_1143)">
<path d="M1241.52 387.436C1228.17 436.647 1083.53 444.37 918.474 404.688C371.313 420.645 919.752 179.012 651.643 185.803C429.417 126.529 779.8 112.38 966.839 226.482C1131.9 266.165 1254.88 338.226 1241.52 387.436Z" fill="url(#paint1_linear_700_1143)"/>
</g>
<g filter="url(#filter2_f_700_1143)">
<path d="M973.87 305.502C975.942 356.255 867.289 401.388 731.188 406.309C316.836 564.31 675.836 189.196 472.548 265.629C287.848 266.637 552.204 161.683 723.686 222.517C859.787 217.595 971.799 254.749 973.87 305.502Z" fill="url(#paint2_linear_700_1143)"/>
</g>
</g>
<defs>
<filter id="filter0_f_700_1143" x="39.4523" y="34.487" width="1007.3" height="534.212" filterUnits="userSpaceOnUse" color-interpolation-filters="sRGB">
<feFlood flood-opacity="0" result="BackgroundImageFix"/>
<feBlend mode="normal" in="SourceGraphic" in2="BackgroundImageFix" result="shape"/>
<feGaussianBlur stdDeviation="61.85" result="effect1_foregroundBlur_700_1143"/>
</filter>
<filter id="filter1_f_700_1143" x="432.517" y="-6.95879" width="957.698" height="584.712" filterUnits="userSpaceOnUse" color-interpolation-filters="sRGB">
<feFlood flood-opacity="0" result="BackgroundImageFix"/>
<feBlend mode="normal" in="SourceGraphic" in2="BackgroundImageFix" result="shape"/>
<feGaussianBlur stdDeviation="73.85" result="effect1_foregroundBlur_700_1143"/>
</filter>
<filter id="filter2_f_700_1143" x="261.969" y="55.8376" width="859.63" height="537.424" filterUnits="userSpaceOnUse" color-interpolation-filters="sRGB">
<feFlood flood-opacity="0" result="BackgroundImageFix"/>
<feBlend mode="normal" in="SourceGraphic" in2="BackgroundImageFix" result="shape"/>
<feGaussianBlur stdDeviation="73.85" result="effect1_foregroundBlur_700_1143"/>
</filter>
<linearGradient id="paint0_linear_700_1143" x1="271.452" y1="355.455" x2="628.723" y2="483.342" gradientUnits="userSpaceOnUse">
<stop stop-color="#93C2FF"/>
<stop offset="1" stop-color="#C2E8FF"/>
</linearGradient>
<linearGradient id="paint1_linear_700_1143" x1="754.338" y1="251.103" x2="893.14" y2="570.976" gradientUnits="userSpaceOnUse">
<stop stop-color="#CDC6FF"/>
<stop offset="1" stop-color="#FFBEDA"/>
</linearGradient>
<linearGradient id="paint2_linear_700_1143" x1="567.362" y1="301.577" x2="798.782" y2="525.713" gradientUnits="userSpaceOnUse">
<stop stop-color="white"/>
<stop offset="1" stop-color="#FFF09D"/>
</linearGradient>
<clipPath id="clip0_700_1143">
<rect width="1440" height="480" fill="white"/>
</clipPath>
</defs>
</svg>
